<?xml version="1.0" encoding="UTF-8" standalone="no"?>
<!DOCTYPE svg PUBLIC "-//W3C//DTD SVG 1.1//EN" "http://www.w3.org/Graphics/SVG/1.1/DTD/svg11.dtd">
<svg width="100%" height="100%" viewBox="0 0 670 440" version="1.1" xmlns="http://www.w3.org/2000/svg" xmlns:xlink="http://www.w3.org/1999/xlink" xml:space="preserve" xmlns:serif="http://www.serif.com/" style="fill-rule:evenodd;clip-rule:evenodd;stroke-linejoin:round;stroke-miterlimit:2;">
    <rect id="Tavola-da-disegno1" serif:id="Tavola da disegno1" x="0" y="0" width="670" height="440" style="fill:none;"/>
    <g id="Tavola-da-disegno11" serif:id="Tavola da disegno1">
        <g transform="matrix(1,0,0,1,-200,-239.995)">
            <path d="M413.721,300L240,300L240,620L519.995,620L539.995,640L220,640L220,280L433.721,280L413.721,300ZM526.279,280L847.25,280L847.25,640L634.534,640L654.534,620L827.25,620L827.25,300L546.279,300L526.279,280Z" style="fill:rgb(243,240,238);"/>
        </g>
        <g transform="matrix(1,0,0,1,-200,-239.995)">
            <path d="M440,540L500,600L260,600L260,360L321,421L480,262.005L599,381L440,540ZM451.904,482.431L466.04,468.295L396.03,398.284L381.894,412.42L451.904,482.431ZM479.651,454.684L492.784,441.551L447.129,395.896L521.007,413.327L535.191,399.144L465.181,329.133L452.048,342.266L498.801,389.019L423.394,370.92L409.64,384.674L479.651,454.684Z" style="fill:rgb(243,240,238);"/>
        </g>
        <g transform="matrix(-1,-1.22465e-16,1.22465e-16,-1,867.25,681.005)">
            <path d="M440,540L500,600L260,600L260,360L321,421L480,262.005L599,381L440,540ZM520.293,343.376C509.15,332.233 497.33,326.558 484.834,326.351C472.338,326.144 460.884,331.246 450.474,341.657C440.19,351.941 435.168,363.346 435.406,375.874C435.645,388.402 441.416,400.317 452.718,411.62C464.116,423.018 476.111,428.82 488.702,429.027C501.294,429.234 512.748,424.18 523.063,413.864C528.762,408.165 532.869,402.212 535.384,396.004C537.294,391.355 538.21,386.237 538.13,380.65C538.05,375.062 537.024,369.69 535.05,364.532C532.344,357.56 527.425,350.508 520.293,343.376ZM506.205,358.419C514.26,366.474 518.502,374.282 518.932,381.844C519.362,389.405 516.664,396.099 510.837,401.925C505.011,407.752 498.365,410.45 490.899,410.02C483.433,409.59 475.689,405.364 467.666,397.341C459.547,389.222 455.265,381.326 454.819,373.654C454.374,365.981 456.968,359.327 462.604,353.692C468.239,348.056 474.933,345.454 482.685,345.883C490.437,346.313 498.277,350.492 506.205,358.419ZM320.386,474.133L306.25,488.268L364.417,546.435L343.691,567.162L355.534,579.005L411.17,523.369L399.327,511.526L378.553,532.3L320.386,474.133ZM476.883,457.657L439.537,420.311C431.705,412.479 425.322,407.019 420.387,403.931C417.044,401.862 413.136,400.596 408.663,400.134C404.19,399.673 399.454,400.397 394.456,402.307C389.457,404.218 383.615,408.516 376.929,415.201C371.389,420.741 367.609,425.939 365.587,430.794C363.565,435.649 362.722,440.297 363.056,444.739C363.39,449.18 364.91,453.518 367.617,457.752C370.323,461.987 375.878,468.306 384.284,476.711L421.056,513.484L435.192,499.348L396.461,460.618C390.922,455.078 387.165,450.907 385.191,448.105C383.217,445.304 382.429,442.064 382.827,438.387C383.225,434.71 385.43,430.865 389.441,426.854C393.389,422.906 397.369,420.662 401.38,420.12C405.392,419.579 409.133,420.439 412.603,422.699C414.736,424.132 418.811,427.857 424.829,433.874L462.747,471.793L476.883,457.657Z" style="fill:rgb(243,240,238);"/>
        </g>
    </g>
</svg>
