<?xml version="1.0" standalone="no"?>
<!DOCTYPE svg PUBLIC "-//W3C//DTD SVG 20010904//EN"
 "http://www.w3.org/TR/2001/REC-SVG-20010904/DTD/svg10.dtd">
<svg version="1.0" xmlns="http://www.w3.org/2000/svg"
 width="1340.000000pt" height="1340.000000pt" viewBox="0 0 1340.000000 1340.000000"
 preserveAspectRatio="xMidYMid meet">
<metadata>
Created by potrace 1.14, written by Peter Selinger 2001-2017
</metadata>
<g transform="translate(0.000000,1340.000000) scale(0.100000,-0.100000)"
fill="#000000" stroke="none">
<path d="M4003 9064 l-1583 -1584 -605 605 c-333 333 -607 605 -609 605 -2 0
-6 -11 -8 -25 -3 -14 -2 -25 2 -25 4 0 4 -15 0 -34 -4 -19 -4 -40 1 -47 4 -7
3 -19 -2 -25 -7 -8 -6 -14 1 -19 6 -4 7 -12 1 -24 -5 -9 -6 -23 -1 -30 4 -8 4
-27 0 -42 -5 -18 -5 -29 1 -29 6 0 6 -6 0 -18 -6 -11 -6 -24 0 -34 5 -9 6 -19
1 -22 -6 -3 -8 -61 -2 -61 1 0 2 -21 3 -48 1 -26 0 -47 -3 -47 -7 0 -3 -80 4
-87 3 -3 1 -12 -5 -19 -7 -8 -7 -14 1 -19 6 -4 7 -12 1 -24 -5 -9 -6 -23 -1
-30 4 -8 4 -27 0 -42 -5 -18 -5 -29 1 -29 6 0 6 -6 0 -18 -6 -11 -6 -24 0 -34
5 -9 6 -19 1 -22 -6 -3 -8 -61 -2 -61 1 0 2 -21 3 -48 1 -26 0 -47 -3 -47 -7
0 -3 -80 4 -87 3 -3 1 -12 -5 -19 -7 -8 -7 -14 1 -19 6 -4 7 -12 1 -24 -5 -9
-6 -23 -1 -30 4 -8 4 -27 0 -42 -5 -18 -5 -29 1 -29 6 0 6 -6 0 -18 -6 -11 -6
-24 0 -34 5 -9 6 -19 1 -22 -6 -3 -8 -61 -2 -61 1 0 2 -21 3 -48 1 -26 0 -47
-3 -47 -7 0 -4 -89 3 -97 4 -3 2 -13 -3 -22 -5 -10 -5 -23 -1 -30 5 -7 5 -30
1 -51 -4 -21 -4 -44 1 -51 4 -7 3 -21 -2 -30 -5 -10 -5 -20 -1 -23 5 -3 6 -26
2 -50 -4 -25 -3 -51 1 -58 4 -6 3 -20 -2 -29 -5 -10 -5 -20 -1 -23 5 -3 6 -26
2 -50 -4 -25 -3 -51 1 -58 4 -6 3 -20 -2 -29 -5 -10 -5 -20 -1 -23 5 -3 6 -26
2 -50 -4 -25 -3 -51 1 -58 4 -6 3 -20 -2 -29 -5 -10 -5 -20 -1 -23 5 -3 6 -26
2 -50 -4 -25 -3 -51 1 -58 4 -6 3 -20 -2 -29 -5 -10 -5 -20 -1 -23 5 -3 6 -26
2 -50 -4 -25 -3 -51 1 -58 4 -6 3 -20 -2 -29 -5 -10 -5 -20 -1 -23 5 -3 6 -26
2 -50 -4 -25 -3 -51 1 -58 4 -6 3 -20 -2 -29 -5 -10 -5 -20 -1 -23 5 -3 6 -26
2 -50 -4 -25 -3 -51 1 -58 4 -6 3 -20 -2 -29 -5 -10 -5 -20 0 -23 4 -3 5 -23
1 -45 -4 -22 -3 -45 1 -52 4 -8 3 -19 -2 -25 -7 -8 -6 -14 1 -19 6 -4 7 -12 1
-24 -5 -9 -6 -23 -1 -30 4 -8 4 -27 0 -42 -5 -18 -5 -29 1 -29 6 0 6 -6 0 -18
-6 -11 -6 -24 0 -34 5 -9 6 -19 1 -22 -6 -3 -8 -61 -2 -61 1 0 2 -21 3 -48 1
-26 0 -47 -3 -47 -7 0 -3 -80 4 -87 3 -3 1 -12 -5 -19 -7 -8 -7 -14 1 -19 6
-4 7 -12 1 -24 -5 -9 -6 -23 -1 -30 4 -8 4 -27 0 -42 -5 -18 -5 -29 1 -29 6 0
6 -6 0 -18 -6 -11 -6 -24 0 -34 5 -9 6 -19 1 -22 -6 -3 -8 -61 -2 -61 1 0 2
-21 3 -48 1 -26 0 -47 -3 -47 -7 0 -3 -80 4 -87 3 -3 1 -12 -5 -19 -7 -8 -7
-14 1 -19 6 -4 7 -12 1 -24 -5 -9 -6 -23 -1 -30 4 -8 4 -27 0 -42 -5 -18 -5
-29 1 -29 6 0 6 -6 0 -18 -6 -11 -6 -24 0 -34 5 -9 6 -19 1 -22 -6 -3 -8 -61
-2 -61 1 0 2 -21 3 -48 1 -26 0 -47 -3 -47 -7 0 -3 -80 4 -87 3 -3 1 -12 -5
-19 -7 -8 -7 -14 1 -19 6 -4 7 -12 1 -24 -5 -9 -6 -23 -1 -30 4 -8 4 -27 0
-42 -5 -18 -5 -29 1 -29 6 0 6 -6 0 -18 -6 -11 -6 -24 0 -34 5 -9 5 -19 0 -22
-9 -6 -7 -54 3 -63 3 -4 1 -12 -5 -19 -9 -12 389 -14 2390 -14 1320 0 2401 2
2401 5 0 3 -268 273 -595 600 l-595 595 1585 1585 c872 872 1585 1589 1585
1595 0 15 -2358 2370 -2372 2369 -7 0 -725 -714 -1595 -1585z m1997 -444 c379
-379 691 -694 692 -700 2 -5 -59 -72 -135 -149 -129 -129 -141 -139 -165 -131
-15 5 -63 16 -107 25 -44 9 -87 20 -95 23 -18 6 -37 11 -65 17 -54 10 -85 17
-140 32 -33 8 -68 17 -77 19 -57 13 -99 22 -128 28 -14 3 -70 17 -125 30 -55
14 -113 28 -130 31 -16 3 -34 7 -40 9 -44 13 -64 17 -90 21 -16 2 -30 4 -30 5
0 1 -7 3 -15 5 -8 1 -53 13 -100 25 -46 12 -96 23 -110 25 -14 3 -43 9 -65 15
-22 6 -50 13 -62 15 -11 1 -32 6 -45 10 -13 4 150 -167 374 -392 218 -219 403
-405 411 -413 8 -8 25 -24 38 -36 13 -12 32 -31 42 -44 18 -21 18 -23 0 -42
-31 -35 -236 -238 -239 -238 -8 0 -1394 1390 -1394 1397 0 5 61 68 135 142
l134 133 67 -17 c89 -22 105 -26 129 -30 11 -2 67 -15 125 -30 58 -15 112 -28
120 -30 8 -2 56 -13 105 -26 50 -12 99 -23 110 -24 11 -1 27 -5 35 -8 19 -8
147 -38 177 -42 12 -2 26 -6 31 -9 5 -3 27 -8 48 -12 22 -3 44 -10 50 -15 6
-5 13 -7 16 -4 2 3 20 0 39 -5 19 -6 50 -13 69 -16 19 -3 41 -11 48 -16 6 -6
12 -8 12 -5 0 3 17 1 38 -5 20 -5 53 -11 72 -15 19 -3 43 -9 52 -14 9 -5 34
-11 55 -15 21 -3 54 -9 73 -14 29 -8 -25 50 -345 371 -209 209 -417 417 -462
461 -46 45 -83 86 -83 92 0 11 241 256 253 256 4 0 317 -310 697 -690z m-1377
-1388 l698 -698 -141 -141 -142 -142 -700 701 -701 700 139 139 c77 76 141
139 144 139 3 0 319 -314 703 -698z"/>
<path d="M402 10288 c-7 -7 -8 -17 -2 -29 6 -11 6 -20 1 -24 -6 -3 -6 -17 -1
-35 5 -18 5 -32 -1 -35 -5 -4 -5 -14 1 -25 7 -13 7 -21 0 -25 -8 -5 -8 -11 -1
-19 6 -7 8 -16 5 -19 -8 -8 -9 -85 -1 -93 3 -3 2 -17 -3 -30 -5 -13 -6 -24 -1
-24 5 0 5 -18 1 -39 -4 -22 -4 -45 1 -52 4 -7 4 -20 -1 -29 -6 -11 -5 -21 1
-27 8 -8 7 -13 0 -17 -8 -5 -8 -13 -1 -27 8 -13 7 -19 0 -19 -7 0 -8 -6 0 -19
5 -11 7 -22 3 -24 -9 -6 -9 -64 -1 -72 3 -3 2 -23 -2 -45 -4 -22 -3 -37 1 -34
5 3 6 -5 1 -18 -6 -20 -8 -63 -2 -78 6 -17 4 -62 -2 -66 -5 -3 -4 -14 2 -24 7
-13 7 -21 0 -25 -8 -5 -8 -11 -1 -19 6 -7 8 -15 5 -19 -9 -9 -10 -76 -2 -71 5
3 5 -5 0 -18 -6 -20 -8 -63 -2 -78 6 -17 4 -62 -2 -66 -5 -3 -4 -14 2 -24 7
-13 7 -21 0 -25 -8 -5 -8 -11 -1 -19 6 -7 8 -16 4 -19 -9 -9 -10 -59 -2 -78 4
-8 4 -21 -1 -29 -5 -9 -5 -19 1 -26 7 -8 6 -14 -1 -19 -7 -4 -7 -12 0 -26 8
-13 7 -19 0 -19 -7 0 -8 -6 0 -19 5 -11 7 -22 3 -24 -9 -6 -9 -64 -1 -72 3 -3
2 -26 -2 -50 -4 -25 -3 -48 1 -51 5 -2 4 -16 -1 -29 -5 -14 -6 -25 -1 -25 4 0
5 -20 1 -45 -4 -24 -3 -42 2 -39 4 3 5 -5 0 -18 -6 -20 -8 -63 -2 -78 6 -17 4
-62 -2 -66 -5 -3 -4 -14 2 -24 7 -13 7 -21 0 -25 -8 -5 -8 -11 -1 -19 6 -7 8
-16 5 -19 -8 -8 -9 -85 -1 -93 3 -3 2 -17 -3 -30 -5 -13 -6 -24 -1 -24 5 0 5
-18 1 -39 -4 -22 -4 -45 1 -52 4 -7 4 -20 -1 -29 -6 -11 -5 -21 1 -27 8 -8 7
-13 0 -17 -8 -5 -8 -13 -1 -27 8 -13 7 -19 0 -19 -7 0 -8 -6 0 -19 5 -11 7
-22 3 -24 -9 -6 -9 -64 -1 -72 3 -3 2 -23 -2 -45 -4 -22 -3 -37 1 -34 5 3 6
-5 1 -18 -6 -20 -8 -63 -2 -78 6 -17 4 -62 -2 -66 -5 -3 -4 -14 2 -24 7 -13 7
-21 0 -25 -8 -5 -8 -11 -1 -19 6 -7 8 -15 5 -19 -9 -9 -10 -76 -2 -71 5 3 5
-5 0 -18 -6 -20 -8 -63 -2 -78 6 -17 4 -62 -2 -66 -5 -3 -4 -14 2 -24 7 -13 7
-21 0 -25 -8 -5 -8 -11 -1 -19 6 -7 8 -16 4 -19 -9 -9 -10 -59 -2 -78 4 -8 4
-21 -1 -29 -5 -9 -5 -19 1 -26 7 -8 6 -14 -1 -19 -7 -4 -7 -12 0 -26 8 -13 7
-19 0 -19 -7 0 -8 -6 0 -19 5 -11 7 -22 3 -24 -9 -6 -9 -64 -1 -72 3 -3 2 -26
-2 -50 -4 -25 -3 -48 1 -51 5 -2 4 -16 -1 -29 -5 -14 -6 -25 -1 -25 4 0 5 -20
1 -45 -4 -24 -3 -42 2 -39 4 3 5 -5 0 -18 -6 -20 -8 -63 -2 -78 6 -17 4 -62
-2 -66 -5 -3 -4 -14 2 -24 7 -13 7 -21 0 -25 -8 -5 -8 -11 -1 -19 6 -7 8 -16
5 -19 -8 -8 -9 -85 -1 -93 3 -3 2 -17 -3 -30 -5 -13 -6 -24 -1 -24 5 0 5 -18
1 -39 -4 -22 -4 -45 1 -52 4 -7 4 -20 -1 -29 -6 -11 -5 -21 1 -27 8 -8 7 -13
0 -17 -8 -5 -8 -13 -1 -27 8 -13 7 -19 0 -19 -7 0 -8 -6 0 -19 5 -11 7 -22 3
-24 -9 -6 -9 -64 -1 -72 3 -3 2 -23 -2 -45 -4 -22 -3 -37 1 -34 5 3 6 -5 1
-18 -6 -20 -8 -63 -2 -78 6 -17 4 -62 -2 -66 -5 -3 -4 -14 2 -24 7 -13 7 -21
0 -25 -8 -5 -8 -11 -1 -19 6 -7 8 -15 5 -19 -9 -9 -10 -76 -2 -71 5 3 5 -5 0
-18 -6 -20 -8 -63 -2 -78 6 -17 4 -62 -2 -66 -5 -3 -4 -14 2 -24 7 -13 7 -21
0 -25 -8 -5 -8 -11 -1 -19 6 -7 8 -16 4 -19 -9 -9 -10 -59 -2 -78 4 -8 4 -21
-1 -29 -5 -9 -5 -19 1 -26 7 -8 6 -14 -1 -19 -7 -4 -7 -12 0 -26 8 -13 7 -19
0 -19 -7 0 -8 -6 0 -19 5 -11 7 -22 3 -24 -9 -6 -9 -64 -1 -72 3 -3 2 -26 -2
-50 -4 -25 -3 -48 1 -51 5 -2 4 -16 -1 -29 -5 -14 -6 -25 -1 -25 4 0 5 -20 1
-45 -4 -24 -3 -42 2 -39 4 3 5 -5 0 -18 -6 -20 -8 -63 -2 -78 6 -17 4 -62 -2
-66 -5 -3 -4 -14 2 -24 7 -13 7 -21 0 -25 -8 -5 -8 -11 -1 -19 6 -7 8 -16 5
-19 -8 -8 -9 -85 -1 -93 3 -3 2 -17 -3 -30 -5 -13 -6 -24 -1 -24 5 0 5 -18 1
-39 -4 -22 -4 -45 1 -52 4 -7 4 -20 -1 -29 -6 -11 -5 -21 1 -27 8 -8 7 -13 0
-17 -8 -5 -8 -13 -1 -27 8 -13 7 -19 0 -19 -7 0 -8 -6 0 -19 5 -11 7 -22 3
-24 -9 -6 -9 -64 -1 -72 3 -3 2 -23 -2 -45 -4 -22 -3 -37 1 -34 5 3 6 -5 1
-18 -6 -20 -8 -63 -2 -78 6 -17 4 -62 -2 -66 -5 -3 -4 -14 2 -24 7 -13 7 -21
0 -25 -8 -5 -8 -11 -1 -19 6 -7 8 -15 5 -19 -9 -9 -10 -76 -2 -71 5 3 5 -5 0
-18 -6 -20 -8 -63 -2 -78 6 -17 4 -62 -2 -66 -5 -3 -4 -14 2 -24 7 -13 7 -21
0 -25 -7 -5 -8 -11 -1 -19 5 -6 6 -18 2 -25 -8 -13 -5 -66 4 -82 4 -5 1264 -9
3201 -9 l3194 0 -200 200 c-172 172 -204 200 -228 198 -15 -1 -33 1 -39 5 -6
4 -14 3 -18 -2 -3 -7 -15 -7 -30 -1 -14 5 -27 5 -30 0 -3 -5 -18 -5 -34 0 -16
4 -32 6 -35 2 -4 -3 -25 -5 -49 -4 -53 2 -379 3 -392 1 -18 -2 -80 -1 -90 1
-5 1 -14 1 -20 0 -23 -4 -94 -2 -103 4 -6 3 -13 2 -17 -3 -3 -7 -15 -7 -30 -1
-13 5 -27 5 -30 1 -3 -5 -21 -5 -40 -1 -19 4 -37 4 -40 0 -3 -5 -18 -5 -34 0
-16 4 -32 6 -35 2 -8 -7 -69 -7 -89 1 -9 3 -19 2 -22 -3 -3 -6 -15 -6 -30 0
-13 5 -26 6 -29 2 -2 -4 -90 -5 -196 -2 -105 3 -194 3 -196 1 -6 -7 -69 -5
-87 2 -9 3 -19 2 -22 -3 -3 -6 -15 -6 -30 0 -14 5 -27 5 -30 0 -3 -5 -18 -5
-34 0 -16 4 -32 6 -35 2 -8 -7 -69 -7 -89 1 -9 3 -19 2 -22 -3 -3 -6 -15 -6
-30 0 -14 5 -27 5 -30 0 -3 -5 -18 -5 -34 0 -16 4 -32 6 -35 2 -4 -3 -25 -5
-49 -4 -53 2 -379 3 -392 1 -18 -2 -80 -1 -90 1 -5 1 -14 1 -20 0 -23 -4 -94
-2 -103 4 -6 3 -13 2 -17 -3 -3 -7 -15 -7 -30 -1 -13 5 -27 5 -30 1 -3 -5 -21
-5 -40 -1 -19 4 -37 4 -40 0 -3 -5 -18 -5 -34 0 -16 4 -32 6 -35 2 -8 -7 -69
-7 -89 1 -9 3 -19 2 -22 -3 -3 -6 -15 -6 -30 0 -13 5 -26 6 -29 2 -2 -4 -90
-5 -196 -2 -105 3 -194 3 -196 1 -6 -7 -69 -5 -87 2 -9 3 -19 2 -22 -3 -3 -6
-15 -6 -30 0 -14 5 -27 5 -30 0 -3 -5 -18 -5 -34 0 -16 4 -32 6 -35 2 -8 -7
-69 -7 -89 1 -9 3 -19 2 -22 -3 -3 -6 -15 -6 -30 0 -14 5 -27 5 -30 0 -3 -5
-18 -5 -34 0 -16 4 -32 6 -35 2 -4 -3 -25 -5 -49 -4 -53 2 -379 3 -392 1 -18
-2 -80 -1 -90 1 -5 1 -14 1 -20 0 -23 -4 -94 -2 -103 4 -6 3 -13 2 -17 -3 -3
-7 -15 -7 -30 -1 -13 5 -27 5 -30 1 -3 -5 -21 -5 -40 -1 -19 4 -37 4 -40 0 -3
-5 -18 -5 -34 0 -16 4 -32 6 -35 2 -8 -7 -69 -7 -89 1 -9 3 -19 2 -22 -3 -3
-6 -15 -6 -30 0 -13 5 -26 6 -29 2 -2 -4 -90 -5 -196 -2 -105 3 -194 3 -196 1
-6 -6 -69 -5 -86 2 -11 4 -16 23 -17 72 -1 37 -4 71 -6 76 -3 4 -2 10 2 12 5
3 6 67 3 142 -3 75 -2 139 3 142 4 2 5 8 2 13 -3 5 -6 62 -5 127 0 65 0 153 0
196 0 42 0 102 1 132 0 73 0 68 -1 165 0 47 0 134 0 194 0 60 -3 112 -5 117
-3 4 -2 10 3 13 4 3 6 29 3 58 -3 29 -4 82 -1 118 3 36 3 91 0 123 -3 32 -4
60 -2 62 6 6 3 295 -3 305 -3 5 -1 11 5 15 6 4 8 10 5 14 -5 9 -6 135 -4 416
0 30 0 61 0 68 0 26 -1 185 -2 247 0 36 0 72 0 80 0 14 0 225 0 245 0 6 0 30
0 55 1 25 1 79 1 120 0 41 0 132 0 202 0 69 0 130 -1 135 -1 4 -1 13 0 18 5
25 1 297 -4 305 -3 5 -2 11 2 13 5 3 6 67 3 142 -3 75 -2 139 3 142 4 2 5 8 2
13 -3 5 -6 62 -5 127 0 65 0 153 0 196 0 42 0 102 1 132 0 73 0 68 -1 165 0
47 0 134 0 194 0 60 -3 112 -5 117 -3 4 -2 10 3 13 4 3 6 29 3 58 -3 29 -4 82
-1 118 3 36 3 91 0 123 -3 32 -4 60 -2 62 6 6 3 295 -3 305 -3 5 -1 11 5 15 6
4 8 10 5 14 -4 8 -5 69 -4 302 0 53 -1 100 -2 105 -1 5 -1 19 0 32 1 23 2 23
132 21 71 0 132 1 134 3 3 2 30 1 60 -2 31 -3 58 -3 60 0 2 3 29 3 60 0 31 -3
58 -3 60 0 2 3 29 3 60 0 31 -3 58 -3 60 0 2 3 29 3 60 0 31 -3 58 -4 60 -1 2
3 101 4 220 1 119 -3 218 -2 220 1 2 3 29 2 60 -1 31 -3 58 -3 61 1 2 4 18 4
34 -1 18 -5 32 -5 36 1 3 5 10 6 16 3 12 -7 106 -9 113 -2 2 2 30 1 60 -2 31
-3 58 -3 60 0 2 3 29 3 60 0 31 -3 58 -3 61 1 2 4 20 3 39 -1 19 -4 37 -5 39
-1 3 4 30 4 61 1 31 -3 58 -3 61 1 2 4 18 4 34 -1 18 -5 32 -5 36 1 3 5 10 6
16 3 12 -7 106 -9 113 -2 2 2 30 1 60 -2 31 -3 58 -3 60 0 2 3 29 3 60 0 31
-3 58 -4 60 -1 2 3 101 4 220 1 119 -3 218 -2 220 1 2 3 29 2 60 -1 31 -3 58
-3 60 0 2 3 29 3 60 0 31 -3 58 -3 60 0 2 3 29 3 60 0 31 -3 58 -3 60 0 2 3
29 3 60 0 30 -3 58 -4 60 -2 3 3 42 4 87 3 l83 -2 200 201 200 200 -2131 0
c-1595 0 -2133 -3 -2142 -12z"/>
<path d="M6725 10101 l199 -200 69 -3 c38 -2 71 0 72 3 2 3 29 2 60 -1 31 -3
58 -3 60 0 2 3 29 3 60 0 31 -3 58 -4 60 -1 2 3 110 4 240 1 130 -3 238 -2
240 1 2 3 29 2 60 -1 31 -3 58 -3 60 0 2 3 29 3 60 0 31 -3 58 -3 60 0 2 3 29
3 60 0 31 -3 58 -3 60 0 2 3 29 3 60 0 31 -3 58 -4 60 -1 2 4 38 4 80 1 42 -3
78 -3 80 1 2 3 29 2 60 -1 31 -3 58 -3 60 0 2 3 29 3 60 0 31 -3 58 -3 60 0 2
3 29 3 60 0 31 -3 58 -3 60 0 2 3 29 3 60 0 31 -3 58 -3 60 0 2 3 29 3 60 0
31 -3 58 -3 60 0 2 3 29 3 60 0 31 -3 58 -3 61 1 2 4 18 4 34 -1 18 -5 32 -5
36 1 3 5 10 6 16 3 12 -7 106 -9 113 -2 2 2 30 1 60 -2 31 -3 58 -3 60 0 2 3
29 3 60 0 31 -3 58 -4 60 -1 2 3 101 4 220 1 119 -3 218 -2 220 1 2 3 29 2 60
-1 31 -3 58 -3 60 0 2 3 29 3 60 0 31 -3 58 -3 60 0 2 3 29 3 60 0 31 -3 58
-3 60 0 2 3 29 3 60 0 31 -3 58 -4 60 -1 2 3 101 4 220 1 119 -3 218 -2 220 1
2 3 29 2 60 -1 31 -3 58 -3 61 1 2 4 18 4 34 -1 18 -5 32 -5 36 1 3 5 10 6 16
3 12 -7 106 -9 113 -2 2 2 30 1 60 -2 31 -3 58 -3 60 0 2 3 29 3 60 0 31 -3
58 -3 60 0 2 3 29 3 60 0 31 -3 58 -3 60 0 2 3 29 3 60 0 31 -3 58 -3 60 0 2
3 29 3 60 0 31 -3 58 -3 60 0 2 3 29 3 60 0 31 -3 58 -3 60 0 2 3 29 3 60 0
31 -3 58 -4 60 -1 2 4 38 4 80 1 42 -3 78 -3 80 1 2 3 29 2 60 -1 31 -3 58 -3
60 0 2 3 29 3 60 0 31 -3 58 -2 61 2 3 5 13 4 22 -1 16 -9 17 -220 17 -3206
l0 -3196 -55 1 c-30 1 -58 1 -62 0 -21 -4 -77 -3 -91 3 -9 3 -19 2 -22 -3 -3
-6 -15 -6 -30 0 -14 5 -27 5 -30 0 -3 -5 -18 -5 -34 0 -16 4 -32 6 -35 2 -8
-7 -69 -7 -89 1 -9 3 -19 2 -22 -3 -3 -6 -15 -6 -30 0 -14 5 -27 5 -30 0 -3
-5 -18 -5 -34 0 -16 4 -32 6 -35 2 -4 -3 -25 -5 -49 -4 -53 2 -379 3 -392 1
-18 -2 -80 -1 -90 1 -5 1 -14 1 -20 0 -23 -4 -94 -2 -103 4 -6 3 -13 2 -17 -3
-3 -7 -15 -7 -30 -1 -13 5 -27 5 -30 1 -3 -5 -21 -5 -40 -1 -19 4 -37 4 -40 0
-3 -5 -18 -5 -34 0 -16 4 -32 6 -35 2 -8 -7 -69 -7 -89 1 -9 3 -19 2 -22 -3
-3 -6 -15 -6 -30 0 -13 5 -26 6 -29 2 -2 -4 -90 -5 -196 -2 -105 3 -194 3
-196 1 -6 -7 -69 -5 -87 2 -9 3 -19 2 -22 -3 -3 -6 -15 -6 -30 0 -14 5 -27 5
-30 0 -3 -5 -18 -5 -34 0 -16 4 -32 6 -35 2 -8 -7 -69 -7 -89 1 -9 3 -19 2
-22 -3 -3 -6 -15 -6 -30 0 -14 5 -27 5 -30 0 -3 -5 -18 -5 -34 0 -16 4 -32 6
-35 2 -4 -3 -25 -5 -49 -4 -53 2 -379 3 -392 1 -18 -2 -80 -1 -90 1 -5 1 -14
1 -20 0 -23 -4 -94 -2 -103 4 -6 3 -13 2 -17 -3 -3 -7 -15 -7 -30 -1 -13 5
-27 5 -30 1 -3 -5 -21 -5 -40 -1 -19 4 -37 4 -40 0 -3 -5 -19 -5 -35 0 -16 5
-32 5 -35 1 -2 -5 -15 -6 -28 -4 -20 4 -57 -28 -225 -196 l-201 -201 2127 0
2127 0 0 3598 0 3597 -3210 3 -3209 2 199 -199z"/>
<path d="M7390 9481 c0 -5 -10 -7 -22 -4 -14 3 229 -248 577 -595 329 -331
597 -603 595 -606 -3 -3 -718 -720 -1590 -1593 l-1585 -1588 1190 -1187 1190
-1188 1590 1590 1590 1590 605 -605 c333 -333 607 -605 610 -605 3 0 5 1078 5
2396 0 2276 -1 2395 -17 2390 -10 -2 -20 0 -23 5 -3 4 -17 4 -30 -1 -14 -5
-25 -6 -25 -2 0 5 -23 6 -50 2 -28 -4 -53 -3 -56 1 -3 5 -16 4 -29 -1 -14 -5
-25 -6 -25 -2 0 5 -23 6 -50 2 -28 -4 -53 -3 -56 1 -3 5 -16 4 -29 -1 -14 -5
-25 -6 -25 -2 0 5 -23 6 -50 2 -28 -4 -53 -3 -56 1 -3 5 -16 4 -29 -1 -14 -5
-25 -6 -25 -1 0 5 -18 5 -39 1 -22 -4 -45 -4 -52 1 -7 4 -21 3 -30 -2 -12 -6
-20 -5 -24 1 -5 7 -11 8 -19 1 -7 -6 -18 -6 -26 -1 -7 4 -24 4 -37 -1 -16 -6
-22 -5 -18 1 4 6 -2 7 -17 2 -21 -6 -57 -7 -83 -2 -25 5 -41 5 -50 -2 -6 -4
-17 -3 -25 2 -7 4 -24 4 -36 0 -14 -6 -26 -5 -29 0 -4 6 -14 7 -23 2 -19 -9
-59 -8 -69 1 -3 4 -14 2 -24 -3 -12 -7 -20 -7 -24 0 -5 7 -11 8 -19 1 -7 -6
-18 -6 -26 -1 -7 4 -24 4 -37 -1 -16 -6 -22 -5 -18 1 4 6 -2 7 -17 2 -21 -6
-57 -7 -83 -2 -25 5 -41 5 -50 -2 -6 -4 -17 -3 -25 2 -7 4 -24 4 -36 0 -14 -6
-26 -5 -29 0 -4 6 -14 7 -23 2 -19 -9 -59 -8 -69 1 -3 4 -14 2 -24 -3 -12 -7
-20 -7 -24 0 -5 7 -11 8 -19 1 -7 -6 -18 -6 -26 -1 -7 4 -24 4 -37 -1 -16 -6
-22 -5 -18 1 4 6 -2 7 -17 2 -21 -6 -57 -7 -83 -2 -25 5 -41 5 -50 -2 -6 -4
-17 -3 -25 2 -7 4 -24 4 -36 0 -14 -6 -26 -5 -29 0 -4 6 -14 7 -23 2 -19 -9
-59 -8 -69 1 -3 4 -14 2 -24 -3 -12 -7 -20 -7 -24 0 -5 7 -11 8 -19 1 -7 -6
-18 -6 -26 -1 -7 4 -24 4 -37 -1 -16 -6 -22 -5 -18 1 4 6 -2 7 -17 2 -21 -6
-57 -7 -83 -2 -25 5 -41 5 -50 -2 -6 -4 -17 -3 -25 2 -7 4 -24 4 -36 0 -14 -6
-26 -5 -29 0 -4 6 -14 7 -23 2 -19 -9 -59 -8 -69 1 -3 4 -14 2 -24 -3 -12 -7
-20 -7 -24 0 -5 7 -11 8 -19 1 -7 -6 -18 -6 -26 -1 -7 4 -24 4 -37 -1 -18 -6
-22 -6 -17 3 4 7 3 8 -4 4 -16 -10 -93 -13 -98 -4 -3 4 -16 3 -29 -2 -13 -5
-26 -6 -29 -2 -5 8 -64 8 -72 -1 -4 -3 -15 -2 -25 3 -12 7 -19 6 -21 -2 -3 -8
-9 -8 -25 1 -12 6 -24 7 -27 3 -3 -5 -20 -7 -38 -5 -43 5 -109 3 -119 -3 -4
-2 -10 0 -14 5 -4 7 -15 7 -30 1 -14 -5 -25 -6 -25 -2 0 5 -23 6 -50 2 -28 -4
-53 -3 -56 1 -3 5 -16 4 -29 -1 -14 -5 -25 -6 -25 -2 0 5 -23 6 -50 2 -28 -4
-53 -3 -56 1 -3 5 -16 4 -29 -1 -14 -5 -25 -6 -25 -2 0 5 -23 6 -50 2 -28 -4
-53 -3 -56 1 -3 5 -16 4 -29 -1 -14 -5 -25 -6 -25 -2 0 5 -23 6 -50 2 -28 -4
-53 -3 -56 1 -3 5 -16 4 -29 -1 -14 -5 -25 -6 -25 -2 0 5 -23 6 -50 2 -28 -4
-53 -3 -56 1 -3 5 -16 4 -29 -1 -14 -5 -25 -6 -25 -2 0 5 -23 6 -50 2 -28 -4
-53 -3 -56 1 -3 5 -16 4 -29 -1 -14 -5 -25 -6 -25 -2 0 5 -23 6 -50 2 -28 -4
-53 -3 -56 1 -3 5 -16 4 -29 -1 -15 -6 -25 -6 -25 0 0 5 -12 5 -28 0 -16 -4
-36 -4 -45 1 -8 5 -18 6 -21 1 -3 -5 -20 -7 -38 -5 -18 2 -44 5 -58 6 -14 2
-33 -1 -42 -5 -10 -5 -20 -4 -23 2 -5 8 -11 8 -20 0 -8 -7 -21 -7 -39 0 -14 5
-26 6 -26 1z m2963 -539 l118 -119 -207 -207 -208 -207 582 -582 582 -582
-138 -138 c-75 -75 -141 -137 -145 -137 -4 0 -266 259 -582 575 -316 316 -578
575 -581 575 -3 0 -98 -92 -211 -205 l-205 -205 -114 114 c-63 63 -114 118
-114 122 0 6 1099 1114 1105 1114 0 0 53 -53 118 -118z m-478 -2155 c96 -111
191 -267 193 -317 0 -8 4 -28 8 -45 9 -39 9 -118 0 -175 -10 -68 -10 -68 -33
-127 -3 -10 -7 -20 -8 -23 -6 -22 -61 -116 -97 -165 -46 -62 -228 -252 -228
-238 0 4 -7 -2 -15 -14 -32 -46 -231 -164 -298 -177 -12 -2 -43 -9 -69 -15
-56 -13 -200 -8 -254 9 -109 34 -253 127 -350 228 -12 12 -24 22 -27 22 -3 0
-205 198 -448 441 l-442 441 139 139 c76 77 142 138 146 137 4 -2 222 -217
485 -478 397 -395 489 -481 540 -508 35 -18 77 -35 95 -36 18 -2 38 -5 43 -6
6 -1 12 -2 15 -1 3 1 25 4 49 6 58 5 155 55 211 109 65 63 100 103 100 115 0
6 3 11 8 11 17 0 47 98 49 158 1 63 -28 162 -48 162 -5 0 -9 6 -9 13 0 19
-133 158 -578 603 l-411 411 142 142 142 141 445 -448 c245 -246 472 -478 505
-515z m-2150 -742 c141 -31 294 -107 435 -215 83 -63 310 -309 310 -335 0 -2
14 -24 30 -48 17 -25 30 -50 30 -56 0 -6 3 -11 8 -11 4 0 12 -15 18 -32 17
-48 36 -100 45 -123 8 -20 15 -52 28 -140 15 -97 -3 -303 -31 -358 -5 -10 -11
-26 -13 -35 -10 -55 -143 -278 -171 -289 -8 -3 -14 -10 -14 -15 0 -17 -155
-162 -217 -204 -32 -22 -60 -42 -63 -45 -18 -20 -204 -98 -250 -105 -8 -1 -36
-7 -62 -13 -48 -11 -192 -15 -261 -7 -104 13 -245 65 -352 130 -121 74 -273
210 -374 336 -29 36 -59 72 -66 82 -7 9 -11 19 -8 22 4 3 2 6 -4 6 -16 0 -101
177 -123 255 -27 94 -32 134 -35 250 -2 120 14 212 52 305 3 8 7 17 8 20 4 18
56 107 98 169 55 83 217 248 280 288 23 14 44 29 47 33 3 4 39 26 81 48 79 42
186 79 254 89 22 3 42 7 44 9 6 5 243 -3 276 -11z"/>
<path d="M7411 5673 c-57 -12 -143 -42 -151 -52 -3 -3 -24 -18 -47 -33 -75
-49 -153 -137 -195 -223 -23 -45 -30 -68 -44 -130 -15 -65 -9 -146 19 -251 8
-30 74 -153 101 -189 68 -87 179 -205 195 -205 6 0 11 -4 11 -10 0 -12 139
-110 157 -110 7 0 13 -5 13 -11 0 -5 4 -8 9 -4 5 3 12 1 16 -5 6 -10 102 -41
145 -47 41 -5 153 -4 180 2 14 4 30 7 35 8 6 2 16 6 23 10 6 5 12 6 12 2 0
-12 118 56 165 95 73 61 157 181 171 243 1 4 2 8 4 10 7 8 12 65 13 147 2 147
-40 252 -160 402 -86 109 -231 238 -313 280 -14 7 -27 15 -30 18 -3 3 -34 16
-71 28 -88 31 -190 41 -258 25z"/>
</g>
</svg>
